<svg xmlns="http://www.w3.org/2000/svg" xmlns:xlink="http://www.w3.org/1999/xlink" width="512" height="148" preserveAspectRatio="xMidYMid meet" viewBox="0 0 512 148" style="-ms-transform: rotate(360deg); -webkit-transform: rotate(360deg); transform: rotate(360deg);"><path d="M88.1 139.627c24.467-4.322 44.675-7.899 44.907-7.948l.422-.09l-23.099-27.475C97.626 89.003 87.231 76.58 87.231 76.508c0-.135 23.852-65.817 23.986-66.05c.045-.079 16.277 27.945 39.347 67.93c21.598 37.435 39.406 68.301 39.571 68.59l.301.526l-73.41-.01l-73.41-.009l44.484-7.858zm281.52-6.645c-11.175-.716-17.674-7.08-19.396-18.99c-.458-3.168-.46-3.25-.507-23.818l-.045-19.907h9.891l.039 19.255c.035 17.354.057 19.389.223 20.61c.673 4.954 2.014 8.286 4.296 10.677c1.827 1.914 3.965 3.035 6.925 3.63c1.396.28 5.369.28 6.642 0c3-.66 5.406-1.966 7.527-4.086c2.418-2.418 4.207-5.847 5.073-9.726l.292-1.307l.032-19.418l.033-19.418h10.098v61.051h-9.994v-4.843c0-3.29-.036-4.83-.113-4.805c-.062.02-.318.413-.57.872c-1.722 3.14-4.591 6.013-7.735 7.743c-3.768 2.074-7.548 2.811-12.711 2.48zm113.422-.05c-3.945-.296-8.098-1.652-11.493-3.752c-7.155-4.426-11.389-11.721-12.628-21.761c-.43-3.474-.481-8.14-.123-11.093c.8-6.596 3.392-13.072 7.083-17.695c.946-1.185 3.093-3.331 4.278-4.277a26.65 26.65 0 0 1 10.917-5.211c2.316-.507 6.394-.745 8.854-.517c6.18.573 11.844 3.483 15.694 8.063c3.911 4.653 6.06 11.154 6.335 19.16c.044 1.255.054 3.455.024 4.89l-.055 2.606l-21.645.028l-21.645.027v.966c0 2.94.715 6.29 1.95 9.139c1.066 2.457 2.9 5.14 4.403 6.439c3.08 2.662 6.85 4.256 10.974 4.64c1.529.141 5.427-.008 7.17-.276c4.972-.764 9.699-2.714 13.517-5.577c.449-.336.879-.651.955-.699c.111-.07.138.81.135 4.508l-.004 4.596l-1.023.632c-4.318 2.671-9.266 4.386-14.504 5.028c-1.563.192-7.3.277-9.17.137zm18.837-38.755c0-4.925-2.075-10.397-5.013-13.214c-2.096-2.01-4.63-3.24-7.642-3.706c-1.426-.22-4.43-.136-5.932.168c-3.176.642-5.804 2.038-8.095 4.302c-2.412 2.384-4.22 5.278-5.357 8.576c-.41 1.186-.888 3.133-1.036 4.216l-.07.516H501.878v-.858zM208.27 131.4c.025-.074 7.376-19.383 16.334-42.909l16.287-42.774H251.358l.434 1.114c1.327 3.402 32.606 84.612 32.606 84.655c0 .027-2.505.05-5.567.05l-5.568-.002l-4.508-12.003l-4.508-12.002h-36.304l-.158.407c-.087.224-2.013 5.625-4.28 12.002l-4.123 11.594l-5.579.002c-4.416.001-5.57-.026-5.533-.134zm52.664-33.031c0-.02-3.034-8.244-6.742-18.277c-6.937-18.771-7.325-19.9-7.873-22.914c-.257-1.413-.388-1.453-.54-.163c-.11.921-.582 2.984-.946 4.128c-.181.567-3.305 9.141-6.943 19.053c-3.637 9.912-6.613 18.063-6.613 18.115c0 .05 6.673.092 14.828.092c8.156 0 14.829-.015 14.829-.034zm26.832 31.604v-1.563l18.085-24.862l18.085-24.861l-16.374-.055l-16.374-.054l-.029-4.155l-.028-4.155h47.366v2.807L320.41 98.07c-9.948 13.748-18.088 25.02-18.088 25.048c0 .028 8.042.052 17.87.052h17.87v8.364h-50.296v-1.563zm132.712 1.49c-.04-.039-.073-13.824-.073-30.633V70.267h9.886v6.3c0 3.466.042 6.301.093 6.301c.052 0 .293-.567.535-1.26c1.111-3.177 3.039-6.146 5.521-8.505c2.237-2.126 4.794-3.397 7.81-3.883c.847-.137 1.564-.163 3.259-.118c2.128.055 3.24.21 4.535.634l.408.133v10.26l-1.168-.584c-2.063-1.032-4.098-1.441-6.545-1.314c-1.593.083-2.638.288-3.91.765a12.373 12.373 0 0 0-6.23 5.087c-2.149 3.43-3.682 7.837-4.134 11.887c-.081.727-.129 6.648-.148 18.32l-.028 17.245h-4.87c-2.678 0-4.901-.032-4.941-.072zM0 131.249c0-.039 10.884-18.932 24.187-41.986l24.187-41.917L76.56 23.691C92.064 10.68 104.789.02 104.84 0c.05-.02-.153.494-.454 1.14c-.3.647-14.073 30.19-30.607 65.65L43.72 131.264l-21.86.027C9.838 131.306 0 131.287 0 131.248z" fill="#0089D6" fill-rule="nonzero"/><rect x="0" y="0" width="512" height="148" fill="rgba(0, 0, 0, 0)" /></svg>