<svg xmlns="http://www.w3.org/2000/svg" xmlns:xlink="http://www.w3.org/1999/xlink" width="256" height="199" preserveAspectRatio="xMidYMid meet" viewBox="0 0 256 199" style="-ms-transform: rotate(360deg); -webkit-transform: rotate(360deg); transform: rotate(360deg);"><path d="M118.432 187.698c32.89-5.81 60.055-10.618 60.367-10.684l.568-.12l-31.052-36.935c-17.078-20.314-31.051-37.014-31.051-37.11c0-.182 32.063-88.477 32.243-88.792c.06-.105 21.88 37.567 52.893 91.32c29.035 50.323 52.973 91.815 53.195 92.203l.405.707l-98.684-.012l-98.684-.013l59.8-10.564zM0 176.435c0-.052 14.631-25.451 32.514-56.442l32.514-56.347l37.891-31.799C123.76 14.358 140.867.027 140.935.001c.069-.026-.205.664-.609 1.534s-18.919 40.582-41.145 88.25l-40.41 86.67l-29.386.037c-16.162.02-29.385-.005-29.385-.057z" fill="#0089D6" fill-rule="nonzero"/><rect x="0" y="0" width="256" height="199" fill="rgba(0, 0, 0, 0)" /></svg>