<svg xmlns="http://www.w3.org/2000/svg" xmlns:xlink="http://www.w3.org/1999/xlink" width="60px"
    height="60px" viewBox="0 0 60 60" version="1.1">
    <defs>
        <filter id="alpha" filterUnits="objectBoundingBox" x="0%" y="0%" width="100%" height="100%">
            <feColorMatrix type="matrix" in="SourceGraphic"
                values="0 0 0 0 1 0 0 0 0 1 0 0 0 0 1 0 0 0 1 0" />
        </filter>
        <mask id="mask0">
            <g filter="url(#alpha)">
                <rect x="0" y="0" width="60" height="60"
                    style="fill:rgb(0%,0%,0%);fill-opacity:0.101961;stroke:none;" />
            </g>
        </mask>
        <clipPath id="clip1">
            <rect x="0" y="0" width="60" height="60" />
        </clipPath>
        <g id="surface5" clip-path="url(#clip1)">
            <path style=" stroke:none;fill-rule:nonzero;fill:rgb(100%,100%,100%);fill-opacity:1;"
                d="M 9.207031 8.4375 C 0.898438 15.84375 -2.628906 27.238281 0.0429688 38.042969 C 2.71875 48.847656 11.152344 57.28125 21.957031 59.957031 C 32.761719 62.628906 44.15625 59.101562 51.5625 50.792969 Z M 9.207031 8.4375 " />
        </g>
    </defs>
    <g id="surface1">
        <path
            style=" stroke:none;fill-rule:nonzero;fill:rgb(36.078431%,17.647059%,56.862745%);fill-opacity:1;"
            d="M 60 30 C 60 46.570312 46.570312 60 30 60 C 13.429688 60 0 46.570312 0 30 C 0 13.429688 13.429688 0 30 0 C 46.570312 0 60 13.429688 60 30 Z M 60 30 " />
        <use xlink:href="#surface5" mask="url(#mask0)" />
        <path style=" stroke:none;fill-rule:nonzero;fill:rgb(100%,100%,100%);fill-opacity:1;"
            d="M 6.9375 38.671875 C 6.582031 38.675781 6.242188 38.535156 6 38.277344 C 5.75 38.03125 5.609375 37.691406 5.617188 37.339844 C 5.613281 36.988281 5.75 36.652344 6 36.402344 C 6.242188 36.140625 6.582031 35.996094 6.9375 36 C 7.292969 36 7.632812 36.144531 7.875 36.402344 C 8.128906 36.648438 8.269531 36.988281 8.269531 37.339844 C 8.273438 37.695312 8.128906 38.03125 7.875 38.277344 C 7.628906 38.53125 7.289062 38.675781 6.9375 38.671875 Z M 6.9375 38.671875 " />
        <path style=" stroke:none;fill-rule:nonzero;fill:rgb(100%,100%,100%);fill-opacity:1;"
            d="M 25.566406 38.4375 L 23.109375 38.4375 L 14.324219 24.804688 C 14.105469 24.46875 13.925781 24.113281 13.78125 23.738281 L 13.707031 23.738281 C 13.789062 24.515625 13.820312 25.296875 13.800781 26.082031 L 13.800781 38.4375 L 11.804688 38.4375 L 11.804688 21.347656 L 14.398438 21.347656 L 22.949219 34.734375 C 23.304688 35.289062 23.539062 35.671875 23.644531 35.878906 L 23.691406 35.878906 C 23.589844 35.042969 23.550781 34.203125 23.570312 33.367188 L 23.570312 21.347656 L 25.566406 21.347656 Z M 25.566406 38.4375 " />
        <path style=" stroke:none;fill-rule:nonzero;fill:rgb(100%,100%,100%);fill-opacity:1;"
            d="M 39.085938 38.4375 L 30 38.4375 L 30 21.347656 L 38.664062 21.347656 L 38.664062 23.15625 L 32.042969 23.15625 L 32.042969 28.835938 L 38.210938 28.835938 L 38.210938 30.636719 L 32.042969 30.636719 L 32.042969 36.5625 L 39.09375 36.5625 Z M 39.085938 38.4375 " />
        <path style=" stroke:none;fill-rule:nonzero;fill:rgb(100%,100%,100%);fill-opacity:1;"
            d="M 52.5 23.15625 L 47.53125 23.15625 L 47.53125 38.4375 L 45.535156 38.4375 L 45.535156 23.15625 L 40.621094 23.15625 L 40.621094 21.347656 L 52.5 21.347656 Z M 52.5 23.15625 " />
    </g>
</svg>