<svg xmlns="http://www.w3.org/2000/svg" xmlns:xlink="http://www.w3.org/1999/xlink" aria-hidden="true" focusable="false" width="1em" height="1em" style="-ms-transform: rotate(360deg); -webkit-transform: rotate(360deg); transform: rotate(360deg);" preserveAspectRatio="xMidYMid meet" viewBox="0 0 32 32"><defs><linearGradient id="IconifyId-174f0770b1a-f074e1-34" x1="-2.413" y1="32.987" x2="-2.401" y2="32.984" gradientTransform="matrix(561.015 0 0 -1011.593 1365.643 33384.042)" gradientUnits="userSpaceOnUse"><stop offset="0" stop-color="#919191"/><stop offset="1" stop-color="#fff"/></linearGradient><linearGradient id="IconifyId-174f0770b1a-f074e1-35" x1="-4.202" y1="33.569" x2="-4.191" y2="33.566" gradientTransform="matrix(373.691 0 0 -614.108 1582.079 20634.253)" gradientUnits="userSpaceOnUse"><stop offset="0" stop-color="#900"/><stop offset="1" stop-color="#e80000"/></linearGradient></defs><path d="M16.884 2.57a.326.326 0 0 0 0 .161a4.485 4.485 0 0 1-.027 1.648L8.6 25.857a3.077 3.077 0 0 0 5.748 2.2l8.257-21.481a5.661 5.661 0 0 1 1.085-1.232a.863.863 0 0 0 .107-.121V5.21c0-.013.013-.013.013-.027c.214-.549-1.166-1.594-3.068-2.331s-3.63-.885-3.842-.322a.059.059 0 0 0-.016.04z" opacity=".5" fill="#000"/><path d="M16.643 2.383a.326.326 0 0 0 0 .161a4.482 4.482 0 0 1-.027 1.648L8.362 25.669a3.077 3.077 0 0 0 5.748 2.2l8.254-21.48a5.665 5.665 0 0 1 1.085-1.233a.865.865 0 0 0 .107-.121v-.013c0-.013.013-.013.013-.027c.215-.549-1.169-1.595-3.069-2.331s-3.631-.884-3.845-.322a.049.049 0 0 1-.013.04z" fill="url(#IconifyId-174f0770b1a-f074e1-34)"/><path d="M19.242 12.1L13.28 27.585a2.217 2.217 0 0 1-2.854 1.246A2.268 2.268 0 0 1 9.1 25.977l3.805-9.9a4.356 4.356 0 0 1 1.407-1.313c.938-.549 1.7-.429 2.733-.884a8.088 8.088 0 0 0 2.2-1.782z" fill="url(#IconifyId-174f0770b1a-f074e1-35)"/><path d="M22.133 4.547c.119-.31-.736-.928-1.909-1.381S18 2.6 17.885 2.907s.736.928 1.909 1.381s2.221.569 2.339.259z" fill="#333"/><path d="M16.587 2.542a4.487 4.487 0 0 1-.027 1.643L8.361 25.6a3.059 3.059 0 0 0 1.77 3.928a2.555 2.555 0 0 0 .825.187a3.092 3.092 0 0 1-1.024-3.525l8.04-20.99a5.141 5.141 0 0 1-1.384-2.659z" fill="#fff" opacity=".3"/><g opacity=".5" fill="#fff"><circle cx="13.952" cy="16.357" r=".24"/><circle cx="15.509" cy="18.08" r=".359"/><circle cx="13.126" cy="20.138" r=".679"/><circle cx="12.035" cy="21.394" r=".359"/><circle cx="13.459" cy="24.066" r=".24"/></g></svg>