<svg xmlns="http://www.w3.org/2000/svg" xmlns:xlink="http://www.w3.org/1999/xlink" width="60px"
    height="60px" viewBox="0 0 60 60" version="1.1">
    <g id="surface1">
        <path
            style=" stroke:none;fill-rule:nonzero;fill:rgb(19.607843%,42.352942%,89.803922%);fill-opacity:1;"
            d="M 29.796875 1.703125 C 29.28125 1.726562 28.777344 1.855469 28.3125 2.078125 L 8.03125 11.769531 C 6.964844 12.277344 6.195312 13.238281 5.929688 14.378906 L 0.925781 36.144531 C 0.695312 37.160156 0.882812 38.222656 1.453125 39.09375 C 1.523438 39.199219 1.597656 39.304688 1.675781 39.402344 L 15.710938 56.855469 C 16.449219 57.769531 17.566406 58.304688 18.746094 58.304688 L 41.257812 58.296875 C 42.4375 58.300781 43.554688 57.765625 44.289062 56.851562 L 58.324219 39.394531 C 59.058594 38.480469 59.335938 37.28125 59.074219 36.140625 L 54.0625 14.371094 C 53.796875 13.230469 53.027344 12.269531 51.960938 11.761719 L 31.679688 2.078125 C 31.09375 1.796875 30.445312 1.667969 29.796875 1.703125 Z M 29.796875 1.703125 " />
        <path
            style="fill-rule:nonzero;fill:rgb(100%,100%,100%);fill-opacity:1;stroke-width:0.25;stroke-linecap:butt;stroke-linejoin:miter;stroke:rgb(100%,100%,100%);stroke-opacity:1;stroke-miterlimit:4;"
            d="M 361.423004 99.30459 C 353.328635 99.30459 346.787255 106.598934 346.787255 115.540389 C 346.787255 115.68157 346.834315 115.82275 346.834315 115.963931 C 346.787255 117.187499 346.740195 118.646368 346.787255 119.728754 C 346.975496 124.905386 348.104943 128.85845 348.763787 133.611539 C 350.034415 143.823621 351.022681 152.294473 350.410897 160.153541 C 349.799113 163.118339 347.58728 165.847836 345.657808 167.730247 L 345.328386 173.895145 C 336.433992 174.648109 327.586658 176.012858 318.880505 177.942329 C 280.902853 186.601422 248.195954 206.131441 223.301062 232.579322 C 221.559831 231.308695 219.77154 230.085127 218.03031 228.8145 C 215.441994 229.143922 212.759558 229.943946 209.324157 227.967414 C 202.782777 223.543747 196.853181 217.47297 189.605896 210.131566 C 186.311676 206.649104 183.911602 203.307824 180.005598 199.919483 C 179.111452 199.166519 177.746704 198.131192 176.758438 197.331168 C 173.699519 194.884033 170.075877 193.613405 166.546356 193.472224 C 162.075628 193.331043 157.746082 195.119334 154.922465 198.648856 C 149.887014 204.954934 151.487064 214.602293 158.499047 220.202467 C 158.593167 220.249527 158.640227 220.296588 158.734348 220.390708 C 159.675554 221.143673 160.852061 222.131939 161.746206 222.790783 C 165.934572 225.896762 169.746455 227.449751 173.88776 229.896886 C 182.640974 235.308819 189.888258 239.779546 195.629613 245.191479 C 197.888507 247.591554 198.264989 251.77992 198.547351 253.615271 L 203.25338 257.803636 C 178.170247 295.593047 166.546356 342.229791 173.417158 389.760681 L 167.29932 391.548972 C 165.65221 393.619625 163.393316 396.913845 160.993242 397.85505 C 153.463596 400.255125 144.992744 401.10221 134.780662 402.184597 C 129.980513 402.561079 125.839207 402.325778 120.756696 403.314044 C 119.62725 403.502285 118.07426 403.925827 116.850693 404.208189 L 116.709512 404.255249 C 116.662451 404.255249 116.568331 404.30231 116.521271 404.30231 C 107.862178 406.372962 102.356124 414.326151 104.144415 422.138159 C 105.885646 429.950166 114.309437 434.656195 123.01559 432.820844 C 123.062651 432.773783 123.156771 432.773783 123.203831 432.773783 C 123.297952 432.773783 123.392073 432.726723 123.486193 432.679663 C 124.709761 432.397301 126.21569 432.114939 127.298076 431.832578 C 132.286467 430.51489 135.910109 428.538358 140.427896 426.797127 C 150.075255 423.314666 158.075504 420.443988 165.887512 419.314541 C 169.181732 419.03218 172.617133 421.338134 174.311303 422.279339 L 180.711502 421.196953 C 195.347251 466.65719 226.124679 503.411274 265.043536 526.517875 L 262.3611 532.871014 C 263.349366 535.365209 264.384692 538.706489 263.678788 541.153624 C 260.855171 548.495029 255.960901 556.259976 250.454847 564.919069 C 247.772411 568.919194 244.995854 572.025173 242.595779 576.637081 C 242.031056 577.719467 241.278091 579.413638 240.713368 580.543085 C 236.948545 588.590394 239.725102 597.86127 246.925326 601.343731 C 254.21967 604.826193 263.208185 601.15549 267.114189 593.108181 C 267.114189 593.061121 267.161249 593.061121 267.161249 593.061121 C 267.161249 593.061121 267.161249 593.014061 267.161249 593.014061 C 267.725973 591.884614 268.478937 590.378685 268.94954 589.296298 C 271.020193 584.543209 271.726097 580.496024 273.184966 575.884116 C 277.04391 566.189697 279.161622 555.977615 284.526495 549.624476 C 285.985364 547.883245 288.338378 547.224401 290.832574 546.565557 L 294.126794 540.541841 C 328.057261 553.57754 366.034912 557.060001 404.012564 548.447969 C 412.530476 546.518497 420.907207 543.977242 429.095697 540.918323 C 430.036903 542.565433 431.778133 545.718472 432.201676 546.518497 C 434.742931 547.318522 437.472428 547.742065 439.684261 551.036285 C 443.684386 557.860026 446.413882 565.907335 449.708103 575.648815 C 451.166971 580.260723 451.919936 584.307908 453.990589 589.060996 C 454.461192 590.143383 455.214156 591.649312 455.77888 592.825819 C 459.684883 600.873129 468.720459 604.590891 476.014803 601.10843 C 483.215027 597.625969 485.991584 588.355092 482.226761 580.307783 C 481.662037 579.131276 480.909073 577.484166 480.297289 576.354719 C 477.897214 571.789871 475.167718 568.730953 472.485281 564.730828 C 466.932168 556.071735 462.320259 548.871511 459.496642 541.483046 C 458.320135 537.718223 459.684883 535.318149 460.626089 532.871014 C 460.061366 532.21217 458.884859 528.635588 458.178954 526.941418 C 498.650801 503.081852 528.487023 464.96302 542.510989 420.914591 C 544.3934 421.196953 547.68762 421.761676 548.770007 421.996978 C 550.93478 420.538109 552.958372 418.655697 556.958497 418.985119 C 564.770504 420.114566 572.770753 422.985244 582.418112 426.467705 C 586.935899 428.208936 590.559542 430.185468 595.547932 431.503156 C 596.630319 431.785517 598.136248 432.067879 599.359815 432.350241 C 599.453936 432.350241 599.548056 432.397301 599.642177 432.444361 C 599.689237 432.444361 599.783358 432.444361 599.830418 432.444361 C 608.536571 434.326773 616.960363 429.573684 618.701593 421.761676 C 620.489884 413.949669 614.98383 406.04354 606.324738 403.972888 C 605.10117 403.690526 603.312879 403.172863 602.089312 402.984622 C 597.006801 401.996356 592.865496 402.231657 588.065346 401.855175 C 577.853264 400.772788 569.382412 399.878643 561.852766 397.525628 C 558.793848 396.349121 556.582014 392.678419 555.546688 391.17249 L 549.617092 389.478319 C 552.676011 367.312924 551.875986 344.253384 546.558173 321.193843 C 541.1933 297.899001 531.781243 276.580691 519.169086 257.850697 C 520.675015 256.438888 523.545693 253.944693 524.345718 253.191728 C 524.581019 250.556352 524.392778 247.826855 527.075214 244.909118 C 532.86363 239.497185 540.110914 235.026457 548.864127 229.614524 C 553.005433 227.167389 556.817316 225.6144 561.005681 222.508421 C 561.946887 221.849577 563.217515 220.72013 564.205781 219.920105 C 571.217764 214.319931 572.864874 204.672572 567.829423 198.366494 C 562.793972 192.060415 553.005433 191.448632 545.99345 197.048806 C 545.005184 197.848831 543.640435 198.884157 542.74629 199.637122 C 538.840286 203.025462 536.393151 206.366743 533.098931 209.849204 C 525.898707 217.190609 519.922051 223.308446 513.380671 227.732113 C 510.557054 229.379223 506.368688 228.8145 504.486277 228.673319 L 498.933163 232.673443 C 467.214529 199.40182 424.013186 178.13057 377.517622 173.989265 C 377.423502 172.059793 377.235261 168.530272 377.1882 167.447885 C 375.305789 165.659594 372.999835 164.106605 372.388051 160.153541 C 371.776267 152.294473 372.811594 143.823621 374.082221 133.611539 C 374.741065 128.85845 375.870512 124.905386 376.058753 119.728754 C 376.105814 118.552247 376.058753 116.811016 376.011693 115.540389 C 376.011693 106.598934 369.470313 99.30459 361.423004 99.30459 Z M 343.116553 212.766942 L 338.739946 289.475209 L 338.457584 289.61639 C 338.128162 296.487192 332.480928 301.946186 325.563065 301.946186 C 322.739448 301.946186 320.104072 301.05204 317.986359 299.499051 L 317.845178 299.546111 L 254.925575 254.980019 C 274.267353 235.967663 299.021064 221.896637 327.492537 215.449378 C 332.669169 214.272871 337.8458 213.378725 343.116553 212.766942 Z M 379.729456 212.766942 C 413.048139 216.814126 443.778506 231.920478 467.35571 254.980019 L 404.859649 299.310809 L 404.671408 299.216689 C 399.118294 303.263874 391.306286 302.275608 386.97674 296.816614 C 385.28257 294.698901 384.294304 292.110586 384.153123 289.381089 L 384.106062 289.334029 Z M 232.148396 283.639734 L 289.561946 334.982507 L 289.514886 335.311929 C 294.691517 339.829717 295.444482 347.641724 291.114935 353.053657 C 289.420765 355.21843 287.067751 356.72436 284.432375 357.477324 L 284.385314 357.712626 L 210.735965 378.983875 C 207.018203 344.676926 215.065512 311.405303 232.148396 283.639734 Z M 490.27407 283.639734 C 498.839042 297.475458 505.286302 312.911232 509.145245 329.664695 C 512.910068 346.229916 513.898334 362.748076 512.298284 378.701514 L 438.319513 357.383204 L 438.272453 357.100842 C 431.636952 355.265491 427.542707 348.53587 429.095697 341.759188 C 429.707481 339.123812 431.119289 336.723738 433.189942 334.935447 L 433.142882 334.794266 Z M 349.610872 338.982631 L 373.141016 338.982631 L 387.776765 357.242023 L 382.553073 380.066262 L 361.423004 390.231284 L 340.198815 380.019202 L 334.975123 357.194962 Z M 425.048512 401.525753 C 426.083838 401.478693 427.072105 401.572813 428.01331 401.761054 L 428.154491 401.572813 L 504.298035 414.467332 C 493.144747 445.762423 471.826437 472.916208 443.354964 491.034419 L 413.801104 419.643963 L 413.895224 419.502782 C 411.165728 413.196704 413.895224 405.808239 420.107182 402.796381 C 421.707232 402.043416 423.401402 401.619873 425.048512 401.525753 Z M 297.138652 401.855175 C 302.974128 401.902235 308.19782 405.94942 309.515508 411.879016 C 310.174352 414.655573 309.84493 417.38507 308.809603 419.785144 L 309.044905 420.067506 L 279.773406 490.799117 C 252.431379 473.24563 230.642467 446.93893 219.018576 414.702633 L 294.503276 401.902235 L 294.644457 402.043416 C 295.491542 401.902235 296.338627 401.808115 297.138652 401.855175 Z M 360.952401 432.820844 C 363.023054 432.726723 365.093707 433.197326 366.976118 434.091471 C 369.517374 435.315039 371.493906 437.244511 372.764533 439.597525 L 373.046895 439.597525 L 410.271582 506.846675 C 405.377312 508.493785 400.388922 509.858533 395.353471 510.98798 C 366.929058 517.43524 338.551705 515.505768 312.856788 506.752555 L 349.987354 439.597525 L 350.034415 439.597525 C 352.199188 435.55034 356.340493 432.962025 360.952401 432.820844 Z M 360.952401 432.820844 "
            transform="matrix(0.0830052,0,0,0.0830052,0.000000000000004263,0.866575)" />
    </g>
</svg>