<svg id="Capa_1" enable-background="new 0 0 512 512" height="512" viewBox="0 0 512 512" width="512" xmlns="http://www.w3.org/2000/svg"><g><g fill="#3f5959"><g><path d="m173.167 206c-18.133 0-32.833-14.7-32.833-32.833 0-18.133 14.7-32.833 32.833-32.833 18.133 0 32.833 14.7 32.833 32.833 0 18.133-14.7 32.833-32.833 32.833z"/><path d="m338.833 206c-18.133 0-32.833-14.7-32.833-32.833 0-18.133 14.7-32.833 32.833-32.833 18.133 0 32.833 14.7 32.833 32.833.001 18.133-14.699 32.833-32.833 32.833z"/></g><g><path d="m173.167 371.667c-18.133 0-32.833-14.7-32.833-32.833 0-18.133 14.7-32.833 32.833-32.833 18.133-.001 32.833 14.699 32.833 32.832 0 18.134-14.7 32.834-32.833 32.834z"/><path d="m338.833 371.667c-18.133 0-32.833-14.7-32.833-32.833 0-18.134 14.7-32.834 32.833-32.834 18.133 0 32.833 14.7 32.833 32.833.001 18.134-14.699 32.834-32.833 32.834z"/></g></g><g><path d="m151.605 338.833h-122.543c-11.908 0-21.562-9.654-21.562-21.562v-122.543c0-11.908 9.654-21.562 21.562-21.562h122.543c11.908 0 21.562 9.654 21.562 21.562v122.543c0 11.909-9.654 21.562-21.562 21.562z" fill="#fee265"/><path d="m317.272 338.833h-122.544c-11.908 0-21.562-9.654-21.562-21.562v-122.543c0-11.908 9.654-21.562 21.562-21.562h122.543c11.908 0 21.562 9.654 21.562 21.562v122.543c0 11.909-9.653 21.562-21.561 21.562z" fill="#64b9fc"/><path d="m482.938 338.833h-122.543c-11.908 0-21.562-9.654-21.562-21.562v-122.543c0-11.908 9.654-21.562 21.562-21.562h122.543c11.908 0 21.562 9.654 21.562 21.562v122.543c0 11.909-9.654 21.562-21.562 21.562z" fill="#64b9fc"/><path d="m151.605 173.167h-122.543c-11.908 0-21.562-9.654-21.562-21.562v-122.543c0-11.908 9.654-21.562 21.562-21.562h122.543c11.908 0 21.562 9.654 21.562 21.562v122.543c0 11.908-9.654 21.562-21.562 21.562z" fill="#fb4a59"/><path d="m317.272 173.167h-122.544c-11.908 0-21.562-9.654-21.562-21.562v-122.543c0-11.908 9.654-21.562 21.562-21.562h122.543c11.908 0 21.562 9.654 21.562 21.562v122.543c0 11.908-9.653 21.562-21.561 21.562z" fill="#a3e440"/><path d="m482.938 173.167h-122.543c-11.908 0-21.562-9.654-21.562-21.562v-122.543c0-11.908 9.654-21.562 21.562-21.562h122.543c11.908 0 21.562 9.654 21.562 21.562v122.543c0 11.908-9.654 21.562-21.562 21.562z" fill="#fb4a59"/><g><path d="m504.5 29.06v122.54c0 11.91-9.65 21.57-21.56 21.57h-34c11.91 0 21.56-9.66 21.56-21.57v-122.54c0-11.91-9.65-21.56-21.56-21.56h34c11.91 0 21.56 9.65 21.56 21.56z" fill="#f82f40"/><path d="m338.833 29.06v122.54c0 11.91-9.65 21.57-21.56 21.57h-34c11.91 0 21.56-9.66 21.56-21.57v-122.54c0-11.91-9.65-21.56-21.56-21.56h34c11.91 0 21.56 9.65 21.56 21.56z" fill="#99d53b"/><path d="m173.167 29.06v122.54c0 11.91-9.65 21.57-21.56 21.57h-34c11.91 0 21.56-9.66 21.56-21.57v-122.54c0-11.91-9.65-21.56-21.56-21.56h34c11.91 0 21.56 9.65 21.56 21.56z" fill="#f82f40"/></g><g><path d="m504.5 194.725v122.54c0 11.91-9.65 21.57-21.56 21.57h-34c11.91 0 21.56-9.66 21.56-21.57v-122.54c0-11.91-9.65-21.56-21.56-21.56h34c11.91 0 21.56 9.65 21.56 21.56z" fill="#31a7fb"/><path d="m338.833 194.725v122.54c0 11.91-9.65 21.57-21.56 21.57h-34c11.91 0 21.56-9.66 21.56-21.57v-122.54c0-11.91-9.65-21.56-21.56-21.56h34c11.91 0 21.56 9.65 21.56 21.56z" fill="#31a7fb"/><path d="m173.167 194.725v122.54c0 11.91-9.65 21.57-21.56 21.57h-34c11.91 0 21.56-9.66 21.56-21.57v-122.54c0-11.91-9.65-21.56-21.56-21.56h34c11.91 0 21.56 9.65 21.56 21.56z" fill="#fdd330"/></g><path d="m151.605 504.5h-122.543c-11.908 0-21.562-9.654-21.562-21.562v-122.543c0-11.908 9.654-21.562 21.562-21.562h122.543c11.908 0 21.562 9.654 21.562 21.562v122.543c0 11.908-9.654 21.562-21.562 21.562z" fill="#fb4a59"/><path d="m317.272 504.5h-122.544c-11.908 0-21.562-9.654-21.562-21.562v-122.543c0-11.908 9.654-21.562 21.562-21.562h122.543c11.908 0 21.562 9.654 21.562 21.562v122.543c0 11.908-9.653 21.562-21.561 21.562z" fill="#a3e440"/><path d="m482.938 504.5h-122.543c-11.908 0-21.562-9.654-21.562-21.562v-122.543c0-11.908 9.654-21.562 21.562-21.562h122.543c11.908 0 21.562 9.654 21.562 21.562v122.543c0 11.908-9.654 21.562-21.562 21.562z" fill="#fee265"/><g><path d="m504.5 360.39v122.54c0 11.91-9.65 21.57-21.56 21.57h-34c11.91 0 21.56-9.66 21.56-21.57v-122.54c0-11.91-9.65-21.56-21.56-21.56h34c11.91 0 21.56 9.65 21.56 21.56z" fill="#fdd330"/><path d="m338.833 360.39v122.54c0 11.91-9.65 21.57-21.56 21.57h-34c11.91 0 21.56-9.66 21.56-21.57v-122.54c0-11.91-9.65-21.56-21.56-21.56h34c11.91 0 21.56 9.65 21.56 21.56z" fill="#99d53b"/><path d="m173.167 360.39v122.54c0 11.91-9.65 21.57-21.56 21.57h-34c11.91 0 21.56-9.66 21.56-21.57v-122.54c0-11.91-9.65-21.56-21.56-21.56h34c11.91 0 21.56 9.65 21.56 21.56z" fill="#f82f40"/></g></g><path d="m512 151.605v-122.543c0-16.025-13.037-29.062-29.062-29.062h-122.542c-8.546 0-16.24 3.709-21.563 9.599-5.322-5.89-13.016-9.599-21.562-9.599h-122.542c-8.545 0-16.239 3.708-21.562 9.599-5.322-5.891-13.016-9.599-21.562-9.599h-60.775c-4.143 0-7.5 3.358-7.5 7.5s3.357 7.5 7.5 7.5h60.775c7.754 0 14.062 6.308 14.062 14.062v122.543c0 7.753-6.308 14.062-14.062 14.062h-122.543c-7.754 0-14.062-6.308-14.062-14.062v-122.543c0-7.754 6.308-14.062 14.062-14.062h28.108c4.143 0 7.5-3.358 7.5-7.5s-3.357-7.5-7.5-7.5h-28.108c-16.025 0-29.062 13.037-29.062 29.062v122.543c0 8.545 3.709 16.239 9.599 21.562-5.89 5.322-9.599 13.016-9.599 21.562v122.543c0 8.545 3.709 16.24 9.599 21.562-5.89 5.322-9.599 13.016-9.599 21.561v122.543c0 16.025 13.037 29.062 29.062 29.062h122.543c8.546 0 16.24-3.709 21.563-9.599 5.322 5.891 13.016 9.599 21.562 9.599h122.543c8.545 0 16.239-3.709 21.562-9.599 5.322 5.891 13.016 9.599 21.562 9.599h122.544c16.022 0 29.059-13.037 29.059-29.062v-122.543c0-8.545-3.708-16.239-9.599-21.562 5.891-5.322 9.599-13.017 9.599-21.562v-122.542c0-8.545-3.708-16.24-9.599-21.562 5.891-5.323 9.599-13.017 9.599-21.562zm-171.068 21.561c-.735.664-1.436 1.365-2.099 2.099-.664-.735-1.365-1.435-2.099-2.099.735-.664 1.435-1.365 2.099-2.099.664.735 1.365 1.436 2.099 2.099zm0 165.667c-.735.664-1.435 1.364-2.099 2.099-.664-.735-1.365-1.435-2.099-2.099.735-.664 1.435-1.365 2.099-2.099.664.735 1.365 1.436 2.099 2.099zm-146.203-323.833h122.543c7.754 0 14.062 6.308 14.062 14.062v122.543c0 7.753-6.308 14.062-14.062 14.062h-122.543c-7.754 0-14.062-6.308-14.062-14.062v-122.543c0-7.754 6.308-14.062 14.062-14.062zm-21.562 156.067c.664.735 1.365 1.435 2.099 2.099-.735.664-1.435 1.365-2.099 2.099-.664-.735-1.365-1.435-2.099-2.099.734-.663 1.435-1.364 2.099-2.099zm-158.167 146.204v-122.542c0-7.754 6.308-14.062 14.062-14.062h122.544c7.754 0 14.062 6.308 14.062 14.062v31.441c0 4.142 3.357 7.5 7.5 7.5s7.5-3.358 7.5-7.5v-31.441c0-7.754 6.308-14.062 14.062-14.062h122.543c7.754 0 14.062 6.308 14.062 14.062v122.543c0 7.754-6.308 14.062-14.062 14.062h-122.544c-7.754 0-14.062-6.308-14.062-14.062v-57.442c0-4.142-3.357-7.5-7.5-7.5s-7.5 3.358-7.5 7.5v57.441c0 7.754-6.308 14.062-14.062 14.062s0 0-.001 0h-122.542c-7.754 0-14.062-6.308-14.062-14.062zm158.167 23.662c-.664-.735-1.365-1.435-2.099-2.099.735-.664 1.436-1.365 2.099-2.099.664.735 1.365 1.435 2.099 2.099-.735.663-1.435 1.364-2.099 2.099zm-21.563 156.067h-122.542c-7.754 0-14.062-6.308-14.062-14.062v-122.543c0-7.753 6.308-14.062 14.062-14.062h122.543c7.754 0 14.063 6.308 14.063 14.062v122.543c-.001 7.754-6.31 14.062-14.064 14.062zm165.667 0h-122.542c-7.754 0-14.062-6.308-14.062-14.062v-122.543c0-7.753 6.308-14.062 14.062-14.062h122.543c7.754 0 14.062 6.308 14.062 14.062v122.543c-.001 7.754-6.309 14.062-14.063 14.062zm179.729-302.271v122.543c0 7.754-6.308 14.062-14.062 14.062h-41.108c-4.143 0-7.5 3.358-7.5 7.5s3.357 7.5 7.5 7.5h41.108c7.754 0 14.062 6.308 14.062 14.062v122.543c0 7.753-6.308 14.062-14.062 14.062h-122.543c-7.754 0-14.062-6.308-14.062-14.062v-122.544c0-7.753 6.308-14.062 14.062-14.062h47.775c4.143 0 7.5-3.358 7.5-7.5s-3.357-7.5-7.5-7.5h-47.775c-7.754 0-14.062-6.308-14.062-14.062v-122.542c0-7.754 6.308-14.062 14.062-14.062h122.544c7.753 0 14.061 6.308 14.061 14.062zm-136.604-29.062c-7.754 0-14.063-6.308-14.063-14.062v-122.543c0-7.753 6.309-14.062 14.063-14.062h122.543c7.753 0 14.061 6.308 14.061 14.062v122.543c0 7.753-6.308 14.062-14.062 14.062z"/></g></svg>