<svg xmlns="http://www.w3.org/2000/svg" xmlns:xlink="http://www.w3.org/1999/xlink" width="60px"
    height="60px" viewBox="0 0 60 60" version="1.1">
    <g id="surface1">
        <path
            style=" stroke:none;fill-rule:evenodd;fill:rgb(43.921569%,67.843137%,31.764706%);fill-opacity:1;"
            d="M 10.25 52.488281 C 11.347656 53.375 12.960938 53.207031 13.84375 52.109375 C 14.734375 51.011719 14.570312 49.398438 13.46875 48.507812 C 12.375 47.621094 10.761719 47.789062 9.871094 48.886719 C 9.027344 49.925781 9.136719 51.429688 10.085938 52.34375 L 9.585938 51.90625 C 3.699219 46.429688 0 38.621094 0 29.957031 C 0 13.441406 13.441406 0 29.960938 0 C 38.363281 0 45.957031 3.480469 51.402344 9.066406 C 52.640625 7.382812 53.714844 5.5 54.589844 3.414062 C 58.40625 14.886719 60.652344 24.527344 59.832031 32.121094 C 58.722656 47.632812 45.753906 59.925781 29.960938 59.925781 C 22.628906 59.925781 15.90625 57.273438 10.695312 52.882812 Z M 54.460938 43.144531 C 61.980469 33.140625 57.789062 16.960938 54.300781 6.621094 C 51.195312 13.09375 43.542969 18.046875 36.9375 19.613281 C 30.742188 21.09375 25.261719 19.878906 19.53125 22.085938 C 6.460938 27.109375 6.667969 42.695312 13.867188 46.199219 C 13.871094 46.199219 14.296875 46.429688 14.292969 46.421875 C 14.292969 46.417969 24.875 44.320312 30.726562 42.160156 C 39.277344 39 48.660156 31.21875 51.75 22.175781 C 50.105469 31.582031 42.035156 40.628906 33.925781 44.78125 C 29.609375 47 26.25 47.492188 19.148438 49.949219 C 18.28125 50.246094 17.597656 50.539062 17.597656 50.539062 C 19.398438 50.238281 21.191406 50.140625 21.191406 50.140625 C 31.304688 49.664062 47.078125 52.984375 54.464844 43.148438 Z M 54.460938 43.144531 " />
    </g>
</svg>