<?xml version="1.0" standalone="no"?>
<!DOCTYPE svg PUBLIC "-//W3C//DTD SVG 20010904//EN"
 "http://www.w3.org/TR/2001/REC-SVG-20010904/DTD/svg10.dtd">
<svg version="1.0" xmlns="http://www.w3.org/2000/svg"
 width="512.000000pt" height="512.000000pt" viewBox="0 0 512.000000 512.000000"
 preserveAspectRatio="xMidYMid meet">
<metadata>
Created by potrace 1.11, written by Peter Selinger 2001-2013
</metadata>
<g transform="translate(0.000000,512.000000) scale(0.100000,-0.100000)"
fill="#000000" stroke="none">
<path d="M615 5109 c-55 -9 -165 -48 -217 -77 -199 -109 -332 -285 -382 -507
-14 -63 -15 -272 -13 -2025 l2 -1955 27 -80 c69 -202 226 -359 433 -432 l80
-28 1995 -2 c1924 -2 1998 -1 2067 17 138 36 255 108 346 213 75 86 115 163
155 298 4 13 8 913 10 1999 3 2174 6 2060 -58 2191 -93 192 -222 305 -430 375
-53 18 -131 19 -2010 20 -1075 1 -1978 -2 -2005 -7z m2280 -1293 c44 -4 112
-14 150 -22 39 -8 80 -17 93 -20 39 -8 120 -43 164 -70 139 -87 239 -231 278
-401 23 -96 20 -290 -4 -383 -49 -183 -188 -352 -356 -432 -75 -36 -206 -79
-214 -70 -3 3 -6 1 -6 -4 0 -6 17 -16 38 -23 108 -38 168 -79 245 -170 81 -94
131 -171 206 -320 40 -79 86 -165 102 -192 15 -27 26 -49 23 -49 -4 0 -2 -6 4
-12 11 -14 182 -342 182 -350 0 -2 -198 -4 -440 -4 l-440 1 -13 25 c-8 14 -43
79 -79 145 -36 66 -83 154 -105 195 -22 41 -53 98 -68 125 -37 67 -83 153
-135 250 -52 96 -109 182 -142 212 -41 39 -116 65 -200 70 l-78 5 -2 -513 -3
-514 -390 0 -390 0 0 1260 c-1 693 3 1262 7 1265 11 9 1480 4 1573 -4z"/>
<path d="M2122 3312 l-22 -3 2 -257 3 -256 180 1 c99 0 209 6 245 13 36 7 76
14 89 16 118 22 193 115 193 238 0 158 -95 237 -292 245 -104 5 -373 6 -398 3z"/>
</g>
</svg>
